<svg width="38" height="16" viewBox="0 0 38 16" fill="none" xmlns="http://www.w3.org/2000/svg">
<g clip-path="url(#clip0_64_431)">
<g clip-path="url(#clip1_64_431)">
<path d="M13.225 14.2286C6.3042 15.1354 7.11913 8.95453 4.53893 7.09253H5.12655C7.20135 7.09253 7.76962 5.45058 7.76962 3.84007C7.76962 2.22956 7.06593 0.834273 5.12655 0.834273H3.98275L3.97549 11.7983C3.97549 12.7777 4.29711 13.537 4.89198 14.1826H0C0.594873 13.537 0.916491 12.7801 0.916491 11.7983H0.921327V2.69144C0.921327 1.71207 0.599708 0.952764 0.00483556 0.307109H6.56053C9.47685 0.307109 10.9737 1.87651 10.9737 3.83765C10.9737 5.7988 9.85893 7.53022 6.87973 7.31258C9.37771 7.61485 10.3933 12.0135 13.2275 14.2286H13.225ZM35.2377 11.1091L32.1038 6.24133C33.1073 4.8412 35.5545 1.82331 37.6027 0.309527H33.0227C33.6829 1.79671 32.8099 4.00209 31.7169 5.6392L30.191 3.25004C29.4776 2.11107 29.318 1.15347 29.7727 0.309527L23.7562 0.314364C23.7562 0.314364 25.1128 0.996291 26.6532 3.38787L29.4075 7.66322C28.4427 9.02949 25.5191 12.6277 23.4153 14.1826H28.1089C27.2819 12.3617 28.4112 10.0379 29.8234 8.30645L31.7024 11.2445C32.4157 12.3835 32.5753 13.3411 32.1207 14.1851H37.8857V14.1802C36.9329 13.5442 36.2727 12.6761 35.2402 11.1067L35.2377 11.1091ZM18.6732 14.5091C14.4946 14.5091 11.6629 11.3921 11.6629 7.25455C11.6629 3.11704 14.4946 0 18.6732 0C22.8518 0 25.6617 3.11704 25.6617 7.25455C25.6617 11.3921 22.8301 14.5091 18.6732 14.5091ZM22.4045 7.25455C22.4045 3.40238 20.9535 0.529582 18.6708 0.529582C16.388 0.529582 14.925 3.40238 14.925 7.25455C14.925 11.1067 16.3687 13.9795 18.6708 13.9795C20.9729 13.9795 22.4045 11.1067 22.4045 7.25455Z" fill="#CEB695"/>
</g>
</g>
<defs>
<clipPath id="clip0_64_431">
<rect width="38" height="16" fill="white"/>
</clipPath>
<clipPath id="clip1_64_431">
<rect width="38" height="14.5091" fill="white"/>
</clipPath>
</defs>
</svg>
